<?xml version="1.0" encoding="UTF-8"?>
<!DOCTYPE svg PUBLIC "-//W3C//DTD SVG 1.1//EN" "http://www.w3.org/Graphics/SVG/1.1/DTD/svg11.dtd">
<!-- Creator: CorelDRAW 2018 (64 Bit Versão de avaliação) -->
<svg xmlns="http://www.w3.org/2000/svg" xml:space="preserve" width="52px" height="79px" version="1.1" style="shape-rendering:geometricPrecision; text-rendering:geometricPrecision; image-rendering:optimizeQuality; fill-rule:evenodd; clip-rule:evenodd"
viewBox="0 0 0.46 0.69"
 xmlns:xlink="http://www.w3.org/1999/xlink">
 <defs>
  <style type="text/css">
   <![CDATA[
    .str1 {stroke:#FEFEFE;stroke-width:0.02;stroke-miterlimit:2.61313}
    .str2 {stroke:#FEFEFE;stroke-width:0.02;stroke-miterlimit:22.9256}
    .str0 {stroke:#435CA6;stroke-width:0.02;stroke-miterlimit:2.61313}
    .fil1 {fill:#FEFEFE}
    .fil2 {fill:#FEFEFE}
    .fil3 {fill:#435CA6}
    .fil0 {fill:#435CA6;fill-rule:nonzero}
   ]]>
  </style>
 </defs>
 <g id="Camada_x0020_1">
  <metadata id="CorelCorpID_0Corel-Layer"/>
  <path class="fil0 str0" d="M0.32 0.37l0 -0.18 0.09 0 -0.18 -0.18 -0.18 0.18 0.09 0 0 0.18 0.18 0zm0 -0.09m0.04 -0.09m-0.04 -0.09m-0.18 0m-0.04 0.09m0.04 0.09m0.09 0.09"/>
  <circle class="fil1 str1" cx="0.23" cy="0.47" r="0.22"/>
  <circle class="fil2 str2" cx="0.22" cy="0.46" r="0.21"/>
  <path class="fil3" d="M0.08 0.29c0,0.01 0.01,0.02 0.02,0.02 0.01,0 0.11,0 0.12,0 0,0 0.01,0.02 0.01,0.02 0.01,0 0.01,0.01 0.02,0.01l0.03 0.03c0.02,0 0.02,0 0.04,0.01 0.01,0.01 0.01,0.03 0,0.04 -0.02,0.03 -0.06,0.02 -0.06,-0.01 -0.01,-0.01 0,-0.01 0,-0.02 0,0 -0.03,-0.02 -0.03,-0.03 0,0 -0.02,-0.02 -0.03,-0.02l-0.08 0c0,0 0.01,0.01 0.02,0.01l0.03 0.04c0.03,0.03 0.06,0.05 0.08,0.08 0,0.01 0.07,0.07 0.07,0.08 0.01,-0.01 0.02,-0.02 0.02,-0.02l0.02 0.08 -0.08 -0.03c0,0 0.02,-0.01 0.02,-0.02l-0.11 -0.12c-0.01,-0.01 -0.02,-0.01 -0.02,-0.02l-0.02 -0.02c0,0.02 0,0.03 0,0.05 0,0.04 0,0.03 0.02,0.05 0,0.01 0.03,0.03 0.03,0.03 0,0 0.01,0 0.01,0 0,0 0,0 0,0 0.01,0 0.04,0.03 0.04,0.04l-0.04 0.04c-0.01,-0.01 -0.03,-0.03 -0.04,-0.04 0,0 0,0 0,0 0,-0.01 0,-0.01 0.01,-0.01 0,-0.01 0,0 0,-0.01l-0.05 -0.05c-0.01,-0.01 -0.01,0 -0.01,-0.03 0,-0.01 0,-0.02 0,-0.04 0,-0.01 0,-0.03 0,-0.04 0,-0.01 0,-0.02 -0.01,-0.02l-0.05 -0.06c-0.01,0.01 -0.03,0.05 -0.04,0.07 -0.05,0.11 0.01,0.24 0.12,0.28 0.03,0.02 0.06,0.02 0.09,0.02 0.19,0 0.3,-0.23 0.17,-0.37 -0.06,-0.07 -0.16,-0.09 -0.25,-0.06 -0.02,0.01 -0.06,0.03 -0.07,0.04z"/>
 </g>
</svg>
